<svg width="50" height="50" viewBox="0 0 50 50" fill="none" xmlns="http://www.w3.org/2000/svg">
<path d="M30.9635 11.7204C31.272 11.7528 31.5574 11.8986 31.7643 12.1296C31.9713 12.3606 32.085 12.6603 32.0833 12.9704V14.2204H35.4166C35.46 14.2182 35.5035 14.2182 35.5469 14.2204C35.8652 14.2534 36.1588 14.4072 36.3672 14.6501L43.4505 22.9835C43.6457 23.212 43.752 23.5032 43.75 23.8038V32.1371C43.7499 32.4686 43.6182 32.7865 43.3838 33.0209C43.1494 33.2554 42.8315 33.3871 42.5 33.3871H41.2239C41.0117 35.7118 39.0433 37.5538 36.6666 37.5538C34.29 37.5538 32.3216 35.7118 32.1094 33.3871H30.9245H30.8333H30.7031H19.1406C18.9284 35.7118 16.96 37.5538 14.5833 37.5538C12.2067 37.5538 10.2383 35.7118 10.026 33.3871H7.5C7.16849 33.3871 6.85057 33.2554 6.61615 33.0209C6.38174 32.7865 6.25003 32.4686 6.25 32.1371V12.9704C6.25003 12.6389 6.38174 12.321 6.61615 12.0866C6.85057 11.8522 7.16849 11.7205 7.5 11.7204H30.8333C30.8767 11.7182 30.9201 11.7182 30.9635 11.7204ZM29.5833 14.2204H8.75V30.8871H10.5208C11.2851 29.4106 12.8176 28.3871 14.5833 28.3871C16.3491 28.3871 17.8815 29.4106 18.6458 30.8871H29.5833V15.4704C29.5815 15.4314 29.5815 15.3923 29.5833 15.3533V14.2204ZM34.8437 16.7204H32.0833V22.5538H39.8047L34.8437 16.7204ZM41.25 25.0538H32.0833V30.8871H32.6041C33.3685 29.4106 34.9009 28.3871 36.6666 28.3871C38.4324 28.3871 39.9648 29.4106 40.7291 30.8871H41.25V25.0538ZM36.6666 30.8871C35.5012 30.8871 34.5833 31.805 34.5833 32.9704C34.5833 34.1358 35.5012 35.0538 36.6666 35.0538C37.832 35.0538 38.75 34.1358 38.75 32.9704C38.75 31.805 37.832 30.8871 36.6666 30.8871ZM14.5833 30.8871C13.4179 30.8871 12.5 31.805 12.5 32.9704C12.5 34.1358 13.4179 35.0538 14.5833 35.0538C15.7487 35.0538 16.6667 34.1358 16.6667 32.9704C16.6667 31.805 15.7487 30.8871 14.5833 30.8871Z" fill="black"/>
</svg>
