<svg width="40" height="42" viewBox="0 0 40 42" fill="none" xmlns="http://www.w3.org/2000/svg">
<path d="M37.7891 21.5316C37.624 21.1937 37.624 20.8063 37.7891 20.4686L39.3195 17.3377C40.1717 15.5944 39.4965 13.5166 37.7825 12.6072L34.7041 10.9738C34.3719 10.7976 34.1442 10.4841 34.0792 10.1139L33.4772 6.68129C33.1419 4.77011 31.3741 3.48584 29.4532 3.75762L26.0026 4.24571C25.6302 4.29829 25.2619 4.17855 24.9917 3.91719L22.4871 1.4942C21.0924 0.145014 18.9077 0.144934 17.5131 1.4942L15.0084 3.91743C14.7381 4.17887 14.3698 4.29837 13.9975 4.24595L10.5469 3.75786C8.62541 3.48592 6.85818 4.77035 6.52293 6.68153L5.92086 10.114C5.85587 10.4842 5.62817 10.7977 5.29612 10.9739L2.21769 12.6073C0.503677 13.5167 -0.171478 15.5946 0.68064 17.3379L2.21104 20.4687C2.37614 20.8066 2.37614 21.194 2.21104 21.5317L0.68056 24.6626C-0.171558 26.4058 0.503597 28.4836 2.21761 29.3931L5.29604 31.0265C5.62817 31.2026 5.85587 31.5161 5.92086 31.8863L6.52293 35.3189C6.82812 37.0588 8.31997 38.2789 10.0345 38.2788C10.2034 38.2788 10.3748 38.2669 10.547 38.2425L13.9976 37.7544C14.3697 37.7016 14.7382 37.8216 15.0084 38.083L17.5131 40.506C18.2105 41.1806 19.1051 41.5179 20.0001 41.5178C20.8947 41.5177 21.7899 41.1805 22.487 40.506L24.9917 38.083C25.262 37.8216 25.6304 37.7022 26.0026 37.7544L29.4532 38.2425C31.3749 38.5144 33.1419 37.23 33.4772 35.3189L34.0793 31.8864C34.1443 31.5161 34.372 31.2027 34.7041 31.0265L37.7825 29.3931C39.4965 28.4837 40.1717 26.4058 39.3195 24.6625L37.7891 21.5316ZM36.6732 27.3023L33.5948 28.9357C32.6133 29.4565 31.9401 30.3829 31.7482 31.4774L31.1461 34.9099C31.0327 35.5565 30.4349 35.9908 29.7847 35.899L26.3341 35.411C25.2337 35.2551 24.1448 35.6092 23.3462 36.3818L20.8414 38.8047C20.3697 39.261 19.6305 39.261 19.1586 38.8047L16.6539 36.3817C15.9789 35.7287 15.0965 35.3749 14.1753 35.3749C14.0065 35.3749 13.8364 35.3867 13.666 35.4109L10.2154 35.899C9.56577 35.9908 8.96748 35.5564 8.85399 34.9098L8.25185 31.4772C8.05982 30.3827 7.38674 29.4563 6.40519 28.9356L3.32676 27.3022C2.74682 26.9945 2.5184 26.2916 2.80669 25.7018L4.33717 22.5708C4.8251 21.5725 4.8251 20.4275 4.33717 19.4292L2.80669 16.2983C2.5184 15.7085 2.74682 15.0056 3.32676 14.6979L6.40519 13.0645C7.38666 12.5436 8.05982 11.6173 8.25177 10.5228L8.85383 7.09028C8.96732 6.44365 9.56505 6.00926 10.2153 6.10111L13.6658 6.5892C14.7658 6.74492 15.8551 6.39092 16.6538 5.61838L19.1585 3.19539C19.6303 2.73904 20.3694 2.73904 20.8414 3.19539L23.346 5.61838C24.1447 6.391 25.2338 6.74492 26.334 6.5892L29.7845 6.10111C30.4343 6.00918 31.0326 6.44365 31.146 7.09028L31.748 10.5229C31.9401 11.6174 32.6131 12.5438 33.5947 13.0645L36.6731 14.6979C37.253 15.0056 37.4815 15.7085 37.1932 16.2983L35.6627 19.4292C35.1748 20.4274 35.1748 21.5725 35.6627 22.5707L37.1932 25.7016C37.4815 26.2916 37.2531 26.9946 36.6732 27.3023Z" fill="white"/>
<path d="M28.6466 12.3534C28.1846 11.8912 27.4352 11.8912 26.9731 12.3534L11.3534 27.9731C10.8912 28.4353 10.8912 29.1845 11.3534 29.6467C11.5844 29.8777 11.8873 29.9933 12.1901 29.9933C12.4929 29.9933 12.7959 29.8778 13.0268 29.6467L28.6465 14.027C29.1088 13.5648 29.1088 12.8156 28.6466 12.3534Z" fill="white"/>
<path d="M15.2665 10.3497C12.874 10.3497 10.9275 12.2962 10.9275 14.6887C10.9275 17.0813 12.874 19.0278 15.2665 19.0278C17.6591 19.0278 19.6056 17.0813 19.6056 14.6887C19.6056 12.2962 17.6591 10.3497 15.2665 10.3497ZM15.2665 16.661C14.179 16.661 13.2943 15.7762 13.2943 14.6886C13.2943 13.6011 14.179 12.7164 15.2665 12.7164C16.354 12.7164 17.2389 13.6011 17.2389 14.6886C17.2388 15.7762 16.354 16.661 15.2665 16.661Z" fill="white"/>
<path d="M24.7334 22.9723C22.3409 22.9723 20.3944 24.9188 20.3944 27.3114C20.3944 29.7039 22.3409 31.6504 24.7334 31.6504C27.126 31.6504 29.0725 29.7039 29.0725 27.3114C29.0725 24.9188 27.126 22.9723 24.7334 22.9723ZM24.7334 29.2836C23.6459 29.2836 22.7611 28.3989 22.7611 27.3114C22.7611 26.2239 23.6458 25.3391 24.7334 25.3391C25.8209 25.3391 26.7057 26.2239 26.7057 27.3114C26.7057 28.3989 25.8209 29.2836 24.7334 29.2836Z" fill="white"/>
</svg>
