<svg width="56" height="15" viewBox="0 0 56 15" fill="none" xmlns="http://www.w3.org/2000/svg">
<g clip-path="url(#clip0_7246_23321)">
<path d="M46.8982 3.96704H44.5841V11.1381H46.8982V3.96704Z" fill="black"/>
<path d="M46.7439 2.74635C47.2067 2.28862 47.2067 1.37317 46.7439 0.762874C46.7439 0.762874 46.4353 0.610299 46.4353 0.457724L45.8183 0L45.2012 0.457724C45.2012 0.457724 44.8926 0.610299 44.8926 0.762874C44.4298 1.2206 44.4298 2.13605 44.8926 2.74635C45.2012 3.20407 46.1268 3.20407 46.7439 2.74635Z" fill="black"/>
<path d="M8.02204 8.23901C8.02204 6.86584 7.09642 6.10296 5.86226 5.79781C6.94215 5.49266 7.55923 4.72979 7.55923 3.66176C7.55923 1.67829 5.70799 1.06799 4.01102 1.06799H0V11.2905H4.16529C6.01653 11.1379 8.02204 10.3751 8.02204 8.23901ZM2.46832 2.89889H3.70248C4.78237 2.89889 5.24518 3.20404 5.24518 3.81434C5.24518 4.57721 4.78237 4.88236 3.70248 4.88236H2.46832V2.89889ZM2.46832 9.15446V6.86584H3.85675C4.93664 6.86584 5.55372 7.17099 5.55372 7.93386C5.55372 8.84931 4.6281 9.15446 3.85675 9.15446H2.46832Z" fill="black"/>
<path d="M11.416 0.305176H8.94763V11.138H11.416V0.305176Z" fill="black"/>
<path d="M12.3416 9.15445C12.3416 10.8328 13.8843 11.4431 14.9641 11.4431C15.8898 11.4431 16.6611 11.1379 16.9697 10.5276V11.2905H19.1294V7.6287C19.1294 5.03493 18.2038 3.81433 15.7355 3.81433C14.5013 3.81433 13.4214 4.27206 12.4958 5.03493L13.8843 6.25553C14.3471 5.7978 14.9641 5.49265 15.7355 5.49265C16.5068 5.49265 16.9697 5.7978 16.9697 6.56068V6.71325C14.9641 6.71325 12.3416 7.0184 12.3416 9.15445ZM17.1239 8.08643V8.39158C17.1239 9.30702 16.6611 9.91732 15.5812 9.91732C15.1184 9.91732 14.5013 9.76475 14.5013 9.15445C14.5013 8.239 15.7355 8.239 16.6611 8.239H17.1239V8.08643Z" fill="black"/>
<path d="M24.2204 11.4432C25.3003 11.4432 26.2259 11.1381 26.843 10.5278L25.4545 9.00201C25.3003 9.30716 24.8375 9.45973 24.2204 9.45973C23.1405 9.45973 22.5234 8.69686 22.5234 7.62884C22.5234 6.71339 23.1405 5.79794 24.2204 5.79794C24.6832 5.79794 25.3003 6.10309 25.4545 6.40824L26.843 4.88249C26.2259 4.27219 25.146 3.96704 24.2204 3.96704C21.9063 3.96704 20.2094 5.49279 20.2094 7.78141C20.2094 9.91746 21.9063 11.4432 24.2204 11.4432Z" fill="black"/>
<path d="M30.0827 7.78134L32.3968 11.138H35.3279L32.551 7.32362L35.3279 3.96697H32.3968L30.0827 6.86589V0.305176H27.6144V11.138H30.0827V7.78134Z" fill="black"/>
<path d="M39.4931 9.45972C38.7218 9.45972 37.7961 9.00199 37.3333 8.39169L35.6364 10.07C36.562 10.9855 37.9504 11.5958 39.4931 11.5958C41.4986 11.5958 43.5041 10.5277 43.5041 8.23912C43.5041 6.25565 41.6529 5.64535 40.2645 5.18762C39.3388 4.88247 38.7218 4.7299 38.7218 3.96702C38.7218 3.20415 39.4931 2.899 40.1102 2.899C40.7273 2.899 41.4986 3.20415 41.9614 3.81445L43.5041 2.13613C42.5785 1.37325 41.3443 0.915527 40.1102 0.915527C38.2589 0.915527 36.0992 1.83098 36.0992 4.1196C36.0992 5.9505 37.4876 6.5608 38.7218 7.01852C40.1102 7.47624 40.8815 7.62882 40.8815 8.54427C41.0358 9.15457 40.2645 9.45972 39.4931 9.45972Z" fill="black"/>
<path d="M50.4462 10.3752C50.909 10.9855 51.8347 11.2906 52.606 11.2906C54.7658 11.2906 56 9.45971 56 7.47624C56 5.49276 54.6115 3.66187 52.606 3.66187C51.5261 3.66187 50.7548 4.11959 50.292 4.72989V3.96702H47.9779V14.6473H50.292V10.3752H50.4462ZM52.1432 5.79791C53.2231 5.79791 53.8402 6.71336 53.8402 7.62881C53.8402 8.54426 53.2231 9.45971 52.1432 9.45971C51.0633 9.45971 50.4462 8.54426 50.4462 7.62881C50.4462 6.71336 51.0633 5.79791 52.1432 5.79791Z" fill="black"/>
</g>
<defs>
<clipPath id="clip0_7246_23321">
<rect width="56" height="15" fill="white"/>
</clipPath>
</defs>
</svg>
