<svg width="11" height="16" viewBox="0 0 11 16" fill="none" xmlns="http://www.w3.org/2000/svg">
<path d="M5.8125 0.5C3.02106 0.5 0.75 2.78051 0.75 5.58358C0.75 9.10674 5.81748 15.125 5.81748 15.125C5.81748 15.125 10.875 8.93348 10.875 5.58358C10.875 2.78051 8.60403 0.5 5.8125 0.5ZM7.33996 7.07206C6.91878 7.4949 6.36569 7.70637 5.8125 7.70637C5.2594 7.70637 4.70613 7.4949 4.28513 7.07206C3.44286 6.22637 3.44286 4.85028 4.28513 4.0045C4.69297 3.59478 5.23549 3.36912 5.8125 3.36912C6.38951 3.36912 6.93194 3.59487 7.33996 4.0045C8.18223 4.85028 8.18223 6.22637 7.33996 7.07206Z" fill="white"/>
</svg>
