<svg width="50" height="50" viewBox="0 0 50 50" fill="none" xmlns="http://www.w3.org/2000/svg">
<path d="M14.9621 10.1562C13.447 10.1562 12.1212 11.482 12.1212 12.8078V16.0275H8.90152C7.57576 16.0275 6.25 17.3532 6.25 18.8684V22.8456V26.6335V37.0502C6.25 38.5653 7.57576 39.7017 8.90152 39.7017H35.2273C36.7424 39.7017 37.8788 38.3759 37.8788 37.0502V33.8305H41.0985C42.6136 33.8305 43.75 32.5047 43.75 31.179V12.8078C43.75 11.2926 42.4242 10.1562 41.0985 10.1562H14.9621ZM14.9621 12.429H41.2879C41.4773 12.429 41.6667 12.6184 41.6667 12.8078V30.9896C41.6667 31.179 41.4773 31.3684 41.2879 31.3684H38.0682V26.4441V22.6563V18.8684C38.0682 18.679 38.0682 18.4896 38.0682 18.3002C37.8788 17.3532 37.3106 16.5956 36.3636 16.4063C36.1742 16.4063 35.9848 16.2169 35.7955 16.2169C35.6061 16.2169 35.4167 16.2169 35.2273 16.2169H14.3939V12.8078C14.3939 12.6184 14.5833 12.429 14.9621 12.429ZM8.90152 18.3002H35.2273C35.4167 18.3002 35.6061 18.4896 35.6061 18.679V21.5199H8.52273V18.8684C8.52273 18.4896 8.71212 18.3002 8.90152 18.3002ZM8.52273 23.7926H35.6061V25.3078H8.52273V23.7926ZM8.52273 27.5805H35.6061V32.5047V36.8608C35.6061 37.0502 35.4167 37.2396 35.2273 37.2396H8.90152C8.71212 37.2396 8.52273 37.0502 8.52273 36.8608V27.5805ZM11.3636 30.0426C10.7955 30.0426 10.2273 30.6108 10.2273 31.179C10.2273 31.7472 10.7955 32.3153 11.3636 32.3153H18.1818C18.75 32.3153 19.3182 31.7472 19.3182 31.179C19.3182 30.6108 18.75 30.0426 18.1818 30.0426H11.3636ZM11.1742 32.8835C10.6061 32.8835 10.0379 33.4517 10.0379 34.2093C10.0379 34.7775 10.6061 35.3456 11.1742 35.3456H14.0152C14.5833 35.3456 15.1515 34.7775 15.1515 34.2093C15.1515 33.6411 14.9621 32.8835 14.2045 32.8835H11.1742Z" fill="black"/>
</svg>
