<svg width="38" height="27" viewBox="0 0 38 27" fill="none" xmlns="http://www.w3.org/2000/svg">
<path d="M24.9635 0.720446C25.272 0.752776 25.5574 0.898611 25.7643 1.12962C25.9713 1.36062 26.085 1.66031 26.0833 1.97045V3.22044H29.4166C29.46 3.21818 29.5035 3.21818 29.5469 3.22044C29.8652 3.25338 30.1588 3.40717 30.3672 3.65013L37.4505 11.9835C37.6457 12.212 37.752 12.5032 37.75 12.8038V21.1371C37.7499 21.4686 37.6182 21.7865 37.3838 22.0209C37.1494 22.2554 36.8315 22.3871 36.5 22.3871H35.2239C35.0117 24.7118 33.0433 26.5538 30.6666 26.5538C28.29 26.5538 26.3216 24.7118 26.1094 22.3871H24.9245H24.8333H24.7031H13.1406C12.9284 24.7118 10.96 26.5538 8.58333 26.5538C6.20669 26.5538 4.23829 24.7118 4.02604 22.3871H1.5C1.16849 22.3871 0.850567 22.2554 0.616154 22.0209C0.381741 21.7865 0.250031 21.4686 0.25 21.1371V1.97045C0.250031 1.63894 0.381741 1.32101 0.616154 1.0866C0.850567 0.852186 1.16849 0.72048 1.5 0.720446H24.8333C24.8767 0.718185 24.9201 0.718185 24.9635 0.720446ZM23.5833 3.22044H2.75V19.8871H4.52083C5.28514 18.4106 6.81758 17.3871 8.58333 17.3871C10.3491 17.3871 11.8815 18.4106 12.6458 19.8871H23.5833V4.47044C23.5815 4.4314 23.5815 4.3923 23.5833 4.35326V3.22044ZM28.8437 5.72044H26.0833V11.5538H33.8047L28.8437 5.72044ZM35.25 14.0538H26.0833V19.8871H26.6041C27.3685 18.4106 28.9009 17.3871 30.6666 17.3871C32.4324 17.3871 33.9648 18.4106 34.7291 19.8871H35.25V14.0538ZM30.6666 19.8871C29.5012 19.8871 28.5833 20.805 28.5833 21.9704C28.5833 23.1358 29.5012 24.0538 30.6666 24.0538C31.832 24.0538 32.75 23.1358 32.75 21.9704C32.75 20.805 31.832 19.8871 30.6666 19.8871ZM8.58333 19.8871C7.41793 19.8871 6.49999 20.805 6.49999 21.9704C6.49999 23.1358 7.41793 24.0538 8.58333 24.0538C9.74872 24.0538 10.6667 23.1358 10.6667 21.9704C10.6667 20.805 9.74872 19.8871 8.58333 19.8871Z" fill="black"/>
</svg>
