<svg width="32" height="38" viewBox="0 0 32 38" fill="none" xmlns="http://www.w3.org/2000/svg">
<path d="M31.8434 9.88575C31.8052 8.8906 31.8052 7.93372 31.8052 7.01512C31.8052 6.28789 31.231 5.71377 30.5038 5.71377C24.8774 5.67549 20.5906 4.06794 17.031 0.623182C16.5334 0.125606 15.6914 0.125606 15.1938 0.623182C11.6342 4.06794 7.34741 5.67549 1.75925 5.67549C1.03202 5.67549 0.457893 6.24962 0.457893 6.97684C0.457893 7.89545 0.457893 8.85232 0.419618 9.88575C0.228243 19.3397 -0.0396811 32.2384 15.6914 37.6735C15.8445 37.7117 15.9593 37.75 16.1124 37.75C16.2655 37.75 16.4186 37.7117 16.5334 37.6735C32.2645 32.2384 31.9965 19.3397 31.8434 9.88575ZM16.1124 35.0325C2.63957 30.1333 2.83095 19.4162 3.02232 9.9623C3.02232 9.38817 3.0606 8.85232 3.0606 8.31647C8.30428 8.04855 12.5145 6.47927 16.1124 3.34071C19.7103 6.47927 23.9205 8.08682 29.1642 8.2782C29.1642 8.81405 29.1642 9.3499 29.2025 9.92402C29.3938 19.4162 29.5852 30.1333 16.1124 35.0325Z" fill="black"/>
<path d="M20.6289 14.4405L14.3135 20.7559L11.596 18.0384C11.0984 17.5408 10.2563 17.5408 9.72047 18.0384C9.2229 18.5359 9.2229 19.378 9.72047 19.9138L13.3566 23.55C13.6245 23.8179 13.9307 23.9327 14.2752 23.9327C14.6197 23.9327 14.9642 23.8179 15.1938 23.55L22.4661 16.2777C22.9636 15.7801 22.9636 14.9381 22.4661 14.4022C21.9685 13.9046 21.1264 13.9046 20.6289 14.4405Z" fill="black"/>
</svg>
