<svg width="38" height="30" viewBox="0 0 38 30" fill="none" xmlns="http://www.w3.org/2000/svg">
<path d="M8.96212 0.15625C7.44697 0.15625 6.12121 1.48201 6.12121 2.80777V6.02746H2.90152C1.57576 6.02746 0.25 7.35322 0.25 8.86837V12.8456V16.6335V27.0502C0.25 28.5653 1.57576 29.7017 2.90152 29.7017H29.2273C30.7424 29.7017 31.8788 28.3759 31.8788 27.0502V23.8305H35.0985C36.6136 23.8305 37.75 22.5047 37.75 21.179V2.80777C37.75 1.29261 36.4242 0.15625 35.0985 0.15625H8.96212ZM8.96212 2.42898H35.2879C35.4773 2.42898 35.6667 2.61837 35.6667 2.80777V20.9896C35.6667 21.179 35.4773 21.3684 35.2879 21.3684H32.0682V16.4441V12.6563V8.86837C32.0682 8.67898 32.0682 8.48958 32.0682 8.30019C31.8788 7.35322 31.3106 6.59564 30.3636 6.40625C30.1742 6.40625 29.9848 6.21686 29.7955 6.21686C29.6061 6.21686 29.4167 6.21686 29.2273 6.21686H8.39394V2.80777C8.39394 2.61837 8.58333 2.42898 8.96212 2.42898ZM2.90152 8.30019H29.2273C29.4167 8.30019 29.6061 8.48958 29.6061 8.67898V11.5199H2.52273V8.86837C2.52273 8.48958 2.71212 8.30019 2.90152 8.30019ZM2.52273 13.7926H29.6061V15.3078H2.52273V13.7926ZM2.52273 17.5805H29.6061V22.5047V26.8608C29.6061 27.0502 29.4167 27.2396 29.2273 27.2396H2.90152C2.71212 27.2396 2.52273 27.0502 2.52273 26.8608V17.5805ZM5.36364 20.0426C4.79545 20.0426 4.22727 20.6108 4.22727 21.179C4.22727 21.7472 4.79545 22.3153 5.36364 22.3153H12.1818C12.75 22.3153 13.3182 21.7472 13.3182 21.179C13.3182 20.6108 12.75 20.0426 12.1818 20.0426H5.36364ZM5.17424 22.8835C4.60606 22.8835 4.03788 23.4517 4.03788 24.2093C4.03788 24.7775 4.60606 25.3456 5.17424 25.3456H8.01515C8.58333 25.3456 9.15152 24.7775 9.15152 24.2093C9.15152 23.6411 8.96212 22.8835 8.20455 22.8835H5.17424Z" fill="black"/>
</svg>
