<svg width="50" height="50" viewBox="0 0 50 50" fill="none" xmlns="http://www.w3.org/2000/svg">
<path d="M40.8434 15.8857C40.8052 14.8906 40.8052 13.9337 40.8052 13.0151C40.8052 12.2879 40.231 11.7138 39.5038 11.7138C33.8774 11.6755 29.5906 10.0679 26.031 6.62318C25.5334 6.12561 24.6914 6.12561 24.1938 6.62318C20.6342 10.0679 16.3474 11.6755 10.7592 11.6755C10.032 11.6755 9.45789 12.2496 9.45789 12.9768C9.45789 13.8954 9.45789 14.8523 9.41962 15.8857C9.22824 25.3397 8.96032 38.2384 24.6914 43.6735C24.8445 43.7117 24.9593 43.75 25.1124 43.75C25.2655 43.75 25.4186 43.7117 25.5334 43.6735C41.2645 38.2384 40.9965 25.3397 40.8434 15.8857ZM25.1124 41.0325C11.6396 36.1333 11.8309 25.4162 12.0223 15.9623C12.0223 15.3882 12.0606 14.8523 12.0606 14.3165C17.3043 14.0485 21.5145 12.4793 25.1124 9.34071C28.7103 12.4793 32.9205 14.0868 38.1642 14.2782C38.1642 14.814 38.1642 15.3499 38.2025 15.924C38.3938 25.4162 38.5852 36.1333 25.1124 41.0325Z" fill="black"/>
<path d="M29.6287 20.4405L23.3134 26.7559L20.5958 24.0384C20.0983 23.5408 19.2562 23.5408 18.7203 24.0384C18.2228 24.5359 18.2228 25.378 18.7203 25.9138L22.3565 29.55C22.6244 29.8179 22.9306 29.9327 23.2751 29.9327C23.6196 29.9327 23.964 29.8179 24.1937 29.55L31.4659 22.2777C31.9635 21.7801 31.9635 20.9381 31.4659 20.4022C30.9684 19.9046 30.1263 19.9046 29.6287 20.4405Z" fill="black"/>
</svg>
