<svg width="47" height="16" viewBox="0 0 47 16" fill="none" xmlns="http://www.w3.org/2000/svg">
<path d="M0.689316 0.94574C0.689316 0.94574 4.98153 0.94574 6.56287 0.94574C8.14421 0.94574 8.59602 2.24807 8.59602 2.24807L9.95145 8.54267C8.14421 3.33335 0.689316 0.94574 0.689316 0.94574Z" fill="white"/>
<path d="M7.91828 14.8373L4.98151 3.5504C4.98151 3.5504 8.14419 5.06979 10.1773 9.41089C10.1773 9.845 10.4032 10.7132 10.4032 10.7132L13.7918 0.94574H17.8581L12.2105 14.8373H7.91828Z" fill="white"/>
<path d="M21.0208 14.8373H17.1805L19.4395 0.94574H23.5058L21.0208 14.8373Z" fill="white"/>
<path d="M27.5721 15.2714C24.8612 15.2714 23.5058 14.4031 23.5058 14.4031L24.1835 11.5814C24.1835 11.5814 25.5389 12.4496 27.798 12.4496C30.0571 12.4496 30.283 11.5814 30.283 11.1473C30.283 8.97676 25.0871 9.41087 25.0871 5.06977C25.0871 2.68216 27.1203 0.728668 31.1866 0.728668C32.7679 0.728668 34.5752 1.37983 34.5752 1.37983L33.8975 4.4186C33.8975 4.4186 32.542 3.55038 31.1866 3.55038C29.3793 3.55038 28.7016 4.20155 28.7016 4.85271C28.7016 6.3721 33.8975 6.58915 33.8975 10.2791C34.1234 13.3179 30.283 15.2714 27.5721 15.2714Z" fill="white"/>
<path d="M44.2891 0.94574H40.2228L33.8975 14.8373H37.7379L38.4156 12.8838H43.1596L43.6114 14.8373H47L44.2891 0.94574ZM39.5451 10.2791L41.8042 5.06979L42.9337 10.2791H39.5451Z" fill="white"/>
</svg>
