<svg width="127" height="34" viewBox="0 0 127 34" fill="none" xmlns="http://www.w3.org/2000/svg">
<path d="M106.358 8.99188H101.11V25.2462H106.358V8.99188Z" fill="black"/>
<path d="M106.008 6.22505C107.058 5.18754 107.058 3.11253 106.008 1.72918C106.008 1.72918 105.309 1.38334 105.309 1.03751L103.909 0L102.51 1.03751C102.51 1.03751 101.81 1.38335 101.81 1.72918C100.76 2.76669 100.76 4.84171 101.81 6.22505C102.51 7.26256 104.609 7.26256 106.008 6.22505Z" fill="black"/>
<path d="M18.1929 18.6752C18.1929 15.5627 16.0937 13.8335 13.2948 13.1418C15.7438 12.4501 17.1433 10.721 17.1433 8.30011C17.1433 3.80424 12.9449 2.4209 9.09643 2.4209H0V25.5919H9.44629C13.6446 25.2461 18.1929 23.5169 18.1929 18.6752ZM5.5978 6.57093H8.3967C10.8457 6.57093 11.8953 7.26261 11.8953 8.64595C11.8953 10.3751 10.8457 11.0668 8.3967 11.0668H5.5978V6.57093ZM5.5978 20.7502V15.5627H8.74656C11.1956 15.5627 12.595 16.2543 12.595 17.9835C12.595 20.0585 10.4959 20.7502 8.74656 20.7502H5.5978Z" fill="black"/>
<path d="M25.8898 0.691711H20.292V25.2461H25.8898V0.691711Z" fill="black"/>
<path d="M27.989 20.7502C27.989 24.5544 31.4876 25.9377 33.9367 25.9377C36.0359 25.9377 37.7852 25.246 38.4849 23.8627V25.5919H43.383V17.2918C43.383 11.4126 41.2838 8.6459 35.686 8.6459C32.8871 8.6459 30.4381 9.68341 28.3389 11.4126L31.4876 14.1793C32.5372 13.1418 33.9367 12.4501 35.686 12.4501C37.4353 12.4501 38.4849 13.1418 38.4849 14.871V15.2168C33.9367 15.2168 27.989 15.9085 27.989 20.7502ZM38.8348 18.3293V19.021C38.8348 21.096 37.7852 22.4794 35.3361 22.4794C34.2865 22.4794 32.8871 22.1335 32.8871 20.7502C32.8871 18.6752 35.686 18.6752 37.7852 18.6752H38.8348V18.3293Z" fill="black"/>
<path d="M54.9283 25.9379C57.3774 25.9379 59.4765 25.2462 60.876 23.8628L57.7272 20.4045C57.3774 21.0961 56.3278 21.442 54.9283 21.442C52.4793 21.442 51.0798 19.7128 51.0798 17.292C51.0798 15.2169 52.4793 13.1419 54.9283 13.1419C55.9779 13.1419 57.3774 13.8336 57.7272 14.5253L60.876 11.0669C59.4765 9.68355 57.0275 8.99188 54.9283 8.99188C49.6804 8.99188 45.8319 12.4502 45.8319 17.6378C45.8319 22.4795 49.6804 25.9379 54.9283 25.9379Z" fill="black"/>
<path d="M68.2233 17.6377L73.4712 25.2461H80.1186L73.8211 16.6002L80.1186 8.99178H73.4712L68.2233 15.5627V0.691711H62.6255V25.2461H68.2233V17.6377Z" fill="black"/>
<path d="M89.5647 21.442C87.8154 21.442 85.7162 20.4045 84.6667 19.0211L80.8182 22.8253C82.9174 24.9003 86.0661 26.2837 89.5647 26.2837C94.1129 26.2837 98.6612 23.8628 98.6612 18.6753C98.6612 14.1794 94.4628 12.7961 91.314 11.7585C89.2149 11.0669 87.8154 10.721 87.8154 8.99186C87.8154 7.26268 89.5647 6.57101 90.9642 6.57101C92.3636 6.57101 94.1129 7.26268 95.1625 8.64602L98.6612 4.84182C96.562 3.11264 93.7631 2.07513 90.9642 2.07513C86.7658 2.07513 81.8678 4.15015 81.8678 9.3377C81.8678 13.4877 85.0165 14.8711 87.8154 15.9086C90.9642 16.9461 92.7135 17.2919 92.7135 19.3669C93.0634 20.7503 91.314 21.442 89.5647 21.442Z" fill="black"/>
<path d="M114.405 23.5169C115.455 24.9003 117.554 25.592 119.303 25.592C124.201 25.592 127 21.4419 127 16.946C127 12.4502 123.851 8.30014 119.303 8.30014C116.854 8.30014 115.105 9.33765 114.055 10.721V8.99181H108.807V33.2003H114.055V23.5169H114.405ZM118.253 13.1418C120.702 13.1418 122.102 15.2169 122.102 17.2919C122.102 19.3669 120.702 21.4419 118.253 21.4419C115.804 21.4419 114.405 19.3669 114.405 17.2919C114.405 15.2169 115.804 13.1418 118.253 13.1418Z" fill="black"/>
</svg>
