<svg width="50" height="50" viewBox="0 0 50 50" fill="none" xmlns="http://www.w3.org/2000/svg">
<path d="M25 0L28.1287 5.24623L32.7254 1.22359L34.0798 7.17987L39.6946 4.77457L39.1421 10.8579L45.2254 10.3054L42.8201 15.9202L48.7764 17.2746L44.7538 21.8713L50 25L44.7538 28.1287L48.7764 32.7254L42.8201 34.0798L45.2254 39.6946L39.1421 39.1421L39.6946 45.2254L34.0798 42.8201L32.7254 48.7764L28.1287 44.7538L25 50L21.8713 44.7538L17.2746 48.7764L15.9202 42.8201L10.3054 45.2254L10.8579 39.1421L4.77457 39.6946L7.17987 34.0798L1.22359 32.7254L5.24623 28.1287L0 25L5.24623 21.8713L1.22359 17.2746L7.17987 15.9202L4.77457 10.3054L10.8579 10.8579L10.3054 4.77457L15.9202 7.17987L17.2746 1.22359L21.8713 5.24623L25 0Z" fill="#FFBB00"/>
</svg>
