<svg width="15" height="16" viewBox="0 0 15 16" fill="none" xmlns="http://www.w3.org/2000/svg">
<path d="M6.12891 13.0724C7.50123 13.0724 8.82454 12.5757 9.9028 11.687L13.9708 16L15 14.9021L10.9565 10.563C13.0395 7.71378 12.5739 3.60988 9.9028 1.38802C7.23167 -0.833836 3.38426 -0.337186 1.30127 2.51202C-0.781722 5.36122 -0.316112 9.46513 2.35502 11.687C3.43327 12.5757 4.75658 13.0724 6.12891 13.0724ZM6.12891 1.571C8.70201 1.571 10.785 3.79285 10.785 6.5375C10.785 9.28215 8.70201 11.504 6.12891 11.504C3.5558 11.504 1.47281 9.28215 1.47281 6.5375C1.47281 3.79285 3.5558 1.571 6.12891 1.571Z" fill="black"/>
</svg>
