<svg width="19" height="19" viewBox="0 0 19 19" fill="none" xmlns="http://www.w3.org/2000/svg">
<path d="M6.92188 1.63542C7.96744 1.63542 8.98952 1.94546 9.85888 2.52635C10.7282 3.10723 11.4058 3.93286 11.8059 4.89883C12.206 5.86481 12.3107 6.92774 12.1068 7.95321C11.9028 8.97868 11.3993 9.92064 10.66 10.66C9.92064 11.3993 8.97869 11.9028 7.95321 12.1068C6.92774 12.3107 5.86481 12.206 4.89884 11.8059C3.93286 11.4058 3.10723 10.7282 2.52635 9.85887C1.94546 8.98952 1.63542 7.96744 1.63542 6.92187C1.63701 5.52031 2.19448 4.1766 3.18554 3.18554C4.1766 2.19448 5.52031 1.63701 6.92188 1.63542ZM6.92188 0.125C5.57758 0.125 4.26348 0.52363 3.14574 1.27048C2.028 2.01733 1.15682 3.07886 0.642384 4.32082C0.127945 5.56279 -0.00665581 6.92941 0.255603 8.24788C0.517862 9.56634 1.1652 10.7774 2.11576 11.728C3.06632 12.6786 4.27741 13.3259 5.59587 13.5881C6.91434 13.8504 8.28096 13.7158 9.52293 13.2014C10.7649 12.6869 11.8264 11.8158 12.5733 10.698C13.3201 9.58028 13.7188 8.26617 13.7188 6.92187C13.7188 5.11923 13.0027 3.39042 11.728 2.11576C10.4533 0.841097 8.72452 0.125 6.92188 0.125Z" fill="black"/>
<path d="M18.4873 18.4873C18.2391 18.7356 17.9024 18.875 17.5514 18.875C17.2003 18.875 16.8636 18.7356 16.6154 18.4873L12.5948 14.4667C12.3465 14.2185 12.2071 13.8818 12.2071 13.5307C12.2071 13.1797 12.3465 12.843 12.5948 12.5948C12.843 12.3465 13.1797 12.2071 13.5307 12.2071C13.8818 12.2071 14.2185 12.3465 14.4667 12.5948L18.4873 16.6154C18.7356 16.8636 18.875 17.2003 18.875 17.5514C18.875 17.9024 18.7356 18.2391 18.4873 18.4873Z" fill="black"/>
</svg>
