<svg width="17" height="17" viewBox="0 0 17 17" fill="none" xmlns="http://www.w3.org/2000/svg">
<path d="M14.8428 2.31548L14.8436 2.31634C16.3794 4.07487 16.394 6.90438 14.8362 8.74905L8.60993 15.9683C8.60424 15.9719 8.59529 15.9768 8.58322 15.9819C8.55252 15.9947 8.52153 16 8.5 16C8.46299 16 8.44356 15.9967 8.43644 15.9952C8.43274 15.9945 8.43102 15.9939 8.43069 15.9938L8.42984 15.9934L8.42983 15.9934C8.42951 15.9933 8.42233 15.9899 8.40689 15.9779C8.39208 15.9664 8.36991 15.947 8.33938 15.9152L2.16385 8.74916C0.60602 6.90449 0.620562 4.07491 2.15642 2.31634L2.16725 2.30393L2.17767 2.29117C2.89228 1.41638 3.83452 1 4.82258 1C5.78221 1 6.74553 1.46339 7.488 2.31548L7.49927 2.32842L7.51097 2.34096L7.76904 2.61738L8.5 3.40034L9.23096 2.61738L9.48903 2.34096L9.51159 2.31679L9.53251 2.29117C10.2471 1.41638 11.1894 1 12.1774 1C13.1371 1 14.1004 1.46339 14.8428 2.31548Z" fill="white" stroke="#0098DA" stroke-width="2"/>
</svg>
